# xmcd
# Copyright (C) 1995-1998 Ti Kan
#
# Track frame offsets:
#       150
#       11348
#       23373
#       35101
#       46778
#       64183
#       83458
#       92881
#       109739
#       123065
#       137671
#       152967
#       168908
#       177438
#
# Disc length: 2734 seconds
#
# Revision: 0
# Processed by: cddbd v1.5.2PL0 Copyright (c) Steve Scherf et al.
# Submitted via: CD-Import v1.0
#
DISCID=a30aac0e
DTITLE=Admiral James T And The Bell Garden Four - Admiral James T And The Bell Garden Four
DYEAR=1900
DGENRE=
TTITLE0=Spend It
TTITLE1=The Man From The Suburbs
TTITLE2=Referee
TTITLE3=I Slowly Disappear
TTITLE4=Start A Riot
TTITLE5=Lies Within This Ink
TTITLE6=Until Summer
TTITLE7=Danger In The City
TTITLE8=What Would You Do?
TTITLE9=Crystal Ball
TTITLE10=Same Mistakes
TTITLE11=They Won't E Here Anymore
TTITLE12=It Doesn't Hurt
TTITLE13=What Are You Waitin' For
EXTD=
EXTT0=
EXTT1=
EXTT2=
EXTT3=
EXTT4=
EXTT5=
EXTT6=
EXTT7=
EXTT8=
EXTT9=
EXTT10=
EXTT11=
EXTT12=
EXTT13=
PLAYORDER=
